<svg xmlns="http://www.w3.org/2000/svg" id="Ebene_2" data-name="Ebene 2" viewBox="0 0 405.3 123.84"><script xmlns=""/>
  <defs>
    <style>
      .cls-1 {
        fill: #fff;
      }

      .cls-2 {
        fill: #ee7203;
      }

      .cls-3 {
        fill: #999;
      }
    </style>
  </defs>
  <g id="Ebene_1-2" data-name="Ebene 1-2">
    <g>
      <rect class="cls-2" x="147.96" y="92.51" width="203.66" height="31.33" rx="3.48" ry="3.48"/>
      <path class="cls-2" d="m166.42,80.64c-5.31.11-10.44-1.97-14.17-5.76-5.31-5.31-5.17-11.88-5.17-20.94s-.14-15.63,5.17-20.96c3.73-3.78,8.86-5.86,14.17-5.75,9.83,0,17.48,5.61,19.33,16.58h-10.44c-1.03-4.21-3.68-7.44-8.85-7.44-2.48-.1-4.88.89-6.56,2.71-1.99,2.24-2.59,4.73-2.59,14.84s.61,12.6,2.59,14.82c1.69,1.82,4.08,2.81,6.56,2.72,5.16,0,7.82-3.24,8.85-7.44h10.44c-1.84,11-9.59,16.61-19.33,16.61h0Zm50.53-4.72c-2.36,2.51-6.27,4.72-11.95,4.72s-9.51-2.22-11.88-4.72c-3.46-3.62-4.35-7.98-4.35-14.97s.88-11.29,4.35-14.91c2.36-2.51,6.2-4.7,11.88-4.7s9.59,2.2,11.95,4.7c3.47,3.62,4.35,7.98,4.35,14.91s-.88,11.35-4.35,14.97h0Zm-7.46-24.27c-1.2-1.16-2.83-1.77-4.5-1.69-1.65-.08-3.26.54-4.43,1.69-1.98,2-2.21,5.31-2.21,9.3s.23,7.37,2.21,9.35c1.17,1.16,2.78,1.78,4.43,1.71,1.67.08,3.3-.54,4.5-1.71,2-1.99,2.22-5.38,2.22-9.35s-.22-7.3-2.22-9.3h0Zm38.94,28.54v-23.24c0-5.24-3.32-7-6.34-7s-6.41,1.76-6.41,7v23.24h-9.6v-38.44h9.38v3.55c2.51-2.58,5.96-4.02,9.56-3.97,3.84,0,6.93,1.23,9.07,3.39,3.11,3.07,3.92,6.7,3.92,10.91v24.56h-9.58Zm27.73,0c-7.82,0-11.15-5.53-11.15-11v-19.04h-4.03v-7.27h4.05v-11.36c4,0,9.6-2.11,9.6-2.11v13.47h6.76v7.3h-6.76v18.42c0,2.21,1.04,3.47,3.32,3.47h3.46v8.11h-5.26.01Zm30.09,0v-3.32c-2.58,2.59-5.02,3.68-9.44,3.68s-7.52-1.1-9.83-3.4c-2.13-2.36-3.27-5.46-3.17-8.63,0-6.14,4.2-11.13,13.13-11.13h9.06v-1.92c0-4.19-2.05-6.05-7.15-6.05-3.68,0-5.38.89-7.37,3.18l-6.14-5.98c3.76-4.13,7.46-5.3,13.87-5.3,10.77,0,16.38,4.56,16.38,13.57v25.29h-9.35.01Zm-.23-16.21h-7.58c-3.47,0-5.39,1.62-5.39,4.34s1.77,4.43,5.53,4.43c2.65,0,4.35-.21,6.04-1.84,1.03-.96,1.39-2.5,1.39-4.88v-2.04h0Zm42.14,11.94c-2.35,2.51-6.27,4.72-11.95,4.72s-9.52-2.22-11.88-4.72c-3.47-3.62-4.35-7.98-4.35-14.97s.88-11.29,4.35-14.91c2.36-2.51,6.2-4.7,11.88-4.7s9.6,2.2,11.95,4.7c3.47,3.62,4.34,7.98,4.34,14.91s-.88,11.35-4.35,14.97h.01Zm-7.45-24.27c-1.2-1.16-2.83-1.77-4.5-1.69-1.65-.08-3.25.53-4.42,1.69-2,2-2.23,5.31-2.23,9.3s.23,7.37,2.23,9.35c1.17,1.17,2.77,1.79,4.42,1.71,1.67.08,3.3-.54,4.5-1.71,1.98-1.99,2.2-5.38,2.2-9.35s-.26-7.3-2.22-9.3h.02Z"/>
      <path class="cls-1" d="m7.26,28.1c-3.99,0-7.23,3.21-7.26,7.2v81.33c.02,3.99,3.27,7.21,7.26,7.21h95.15c3.99,0,7.23-3.22,7.26-7.21V35.3c-.03-3.99-3.27-7.21-7.26-7.2,0,0-95.15,0-95.15,0Z"/>
      <path class="cls-2" d="m9.75,86.16c3.07,14.28,5.63,27.88,14.57,37.67H7.26c-3.99,0-7.23-3.22-7.26-7.21V35.3c.03-3.99,3.27-7.21,7.26-7.2h12.32c-3,2.73-5.64,5.84-7.85,9.25-9.76,14.94-5.75,31.24-1.99,48.81h.01ZM102.41,28.1h-19.35c4.58,4.58,8.44,10.51,11.36,17.89l-29.42,6.21c-3.22-6.18-8.12-11.32-17.72-9.32-5.29,1.11-8.79,4.08-10.35,7.33-1.9,4-2.85,8.49,1.72,29.83s7.26,25.05,10.64,27.94c2.75,2.33,7.17,3.64,12.45,2.51,9.59-2.01,11.96-8.7,12.37-15.64l29.42-6.21c.69,15.22-4.02,27.02-12.33,35.18h11.19c3.99,0,7.23-3.22,7.26-7.21V35.3c-.03-3.99-3.27-7.2-7.25-7.2h0Z"/>
      <path class="cls-1" d="m168.69,115.57l-3.82-6.76-1.92,2.3v4.47h-2.9v-14.88h2.9v6.47l5.24-6.47h3.52l-4.91,5.91,5.28,8.96h-3.4,0Zm21.97-1.5c-2.24,2.17-5.8,2.17-8.04,0-1.5-1.5-1.46-3.36-1.46-5.93s-.04-4.43,1.46-5.93c2.24-2.17,5.8-2.17,8.04,0,1.5,1.5,1.49,3.36,1.49,5.93s.02,4.42-1.49,5.93Zm-2.12-10.1c-.47-.52-1.14-.81-1.84-.8-.71-.02-1.4.27-1.88.8-.56.61-.71,1.31-.71,4.18s.15,3.54.71,4.17c.48.53,1.17.82,1.88.8.7.02,1.37-.28,1.84-.8.56-.61.73-1.31.73-4.17s-.19-3.55-.73-4.18Zm23.3,11.61l-5.89-9.13v9.13h-2.9v-14.87h2.59l5.89,9.11v-9.11h2.9v14.87h-2.59Zm16.89-12.28v3.65h5.87v2.59h-5.87v6.04h-2.9v-14.87h9.79v2.59s-6.89,0-6.89,0Zm17.35,12.28v-14.87h9.79v2.59h-6.89v3.49h5.88v2.59h-5.87v3.61h6.89v2.59h-9.8Zm28.43,0l-2.9-5.93h-2.09v5.93h-2.9v-14.87h5.82c3.03,0,4.83,2.07,4.83,4.55.05,1.76-1.05,3.34-2.71,3.91l3.32,6.41h-3.37Zm-2.25-12.28h-2.74v3.92h2.74c1.08.06,2.01-.77,2.07-1.85s-.77-2.01-1.85-2.07h-.22Zm15.97,12.28v-14.87h9.79v2.59h-6.89v3.49h5.86v2.59h-5.86v3.61h6.89v2.59h-9.79Zm29.36,0l-5.89-9.13v9.13h-2.9v-14.87h2.59l5.89,9.11v-9.11h2.9v14.87h-2.59Zm13.09,0v-2.34l6.34-9.94h-6.07v-2.59h9.5v2.3l-6.37,9.98h6.37v2.59h-9.77Z"/>
      <path class="cls-3" d="m402.05,27.82h-28.6l-13.67,12.77v-12.77h-4.81c-1.79.01-3.24-1.43-3.25-3.22h0V3.22C351.72,1.43,353.18-.01,354.97,0h47.08c1.79,0,3.24,1.44,3.25,3.22h0v21.37c0,1.79-1.46,3.23-3.25,3.22h0Z"/>
    </g>
  </g>
  <g>
    <path class="cls-1" d="m365.85,20.29h-8.95v-1.89l4.85-5.71c.9-1.05,1.34-1.93,1.34-2.88,0-1.18-.86-1.76-1.81-1.76s-1.72.61-1.81,1.76h-2.6c0-2.5,2.06-4.2,4.56-4.2s4.58,1.81,4.58,4.2c0,1.91-1.26,3.4-2.18,4.49l-2.98,3.51h5v2.48Z"/>
    <path class="cls-1" d="m377.71,15.86c0,3.25-2.27,4.62-4.87,4.62s-4.87-1.36-4.87-4.62v-5.63c0-3.4,2.27-4.62,4.87-4.62s4.87,1.22,4.87,4.6v5.65Zm-4.87-7.77c-1.32,0-1.95.84-1.95,2.39v5.12c0,1.55.63,2.39,1.95,2.39s1.93-.84,1.93-2.39v-5.12c0-1.55-.63-2.39-1.93-2.39Z"/>
    <path class="cls-1" d="m388.53,20.29h-8.95v-1.89l4.85-5.71c.9-1.05,1.34-1.93,1.34-2.88,0-1.18-.86-1.76-1.81-1.76s-1.72.61-1.81,1.76h-2.6c0-2.5,2.06-4.2,4.56-4.2s4.58,1.81,4.58,4.2c0,1.91-1.26,3.4-2.18,4.49l-2.98,3.51h5v2.48Z"/>
    <path class="cls-1" d="m398.21,5.81l-4.51,9.93h2.77v-3.7h2.94v3.7h1.32v2.5h-1.32v2.06h-2.94v-2.06h-6.42v-2.04l4.96-10.39h3.21Z"/>
  </g>
<script xmlns=""/></svg>